<svg version="1.0" xmlns="http://www.w3.org/2000/svg" viewBox="0 0 700 700"><path d="M23 35C14 38 6 45 2 54c-2 5-2 8-2 71 0 65 0 67 3 71 3 8 10 14 19 17l149 2h148l1 152 1 156c1 9 8 18 17 22 7 4 20 4 27 0 6-3 12-8 15-15l3-5V176l-3-6c-4-9-14-16-23-18H63V97h615l5-3c6-4 11-8 14-15 2-4 2-7 2-13 0-14-6-23-17-29l-6-2-324-1-329 1z"/><path d="M468 152c-11 1-20 8-25 18-4 8-3 19 0 27 4 7 9 12 16 15l6 3h171l1 27-1 27h-86l-91 2c-7 3-13 9-17 16l-3 7v310H265V296l-2-6c-3-7-10-14-18-17l-6-2H133c-116 0-112 0-120 6-14 9-17 31-6 45 3 4 11 9 17 11h91l87 1v155l1 154 2 6c4 8 12 15 20 17h254c8-3 16-9 20-17l2-6V332h86c79 0 87 0 92-2 8-2 14-7 18-15l3-6V174l-3-4c-4-10-13-16-23-18H468z"/></svg>